<?xml version="1.0" standalone="no"?>
<!DOCTYPE svg PUBLIC "-//W3C//DTD SVG 20010904//EN"
 "http://www.w3.org/TR/2001/REC-SVG-20010904/DTD/svg10.dtd">
<svg version="1.0" xmlns="http://www.w3.org/2000/svg"
 width="526.000000pt" height="526.000000pt" viewBox="0 0 526.000000 526.000000"
 preserveAspectRatio="xMidYMid meet">
<metadata>
Created by potrace 1.14, written by Peter Selinger 2001-2017
</metadata>
<g transform="translate(0.000000,526.000000) scale(0.100000,-0.100000)"
fill="#000000" stroke="none">
<path d="M4106 5089 c-110 -18 -239 -95 -368 -220 -80 -78 -294 -302 -653
-684 -82 -88 -305 -322 -495 -520 -505 -528 -976 -1028 -1045 -1109 -142 -166
-213 -283 -249 -406 -18 -60 -36 -240 -36 -362 0 -188 69 -349 179 -416 127
-79 345 -134 526 -135 191 0 280 41 489 228 85 76 995 1020 1591 1650 109 116
281 296 382 402 207 216 217 233 168 291 -21 25 -35 32 -63 32 -33 0 -46 -9
-127 -92 -167 -171 -1026 -1070 -1389 -1453 -596 -630 -776 -803 -895 -856
-90 -40 -284 -30 -451 24 -136 44 -174 74 -207 169 -15 44 -18 80 -16 215 4
244 29 330 146 483 100 132 134 169 426 475 158 165 359 377 446 470 88 94
349 368 580 610 232 242 501 526 598 630 302 324 404 400 537 400 81 -1 103
-12 243 -124 60 -47 161 -128 225 -179 209 -165 233 -186 266 -232 80 -112 83
-213 8 -350 -40 -75 -128 -194 -217 -295 -263 -301 -427 -479 -740 -805 -198
-206 -540 -564 -760 -795 -438 -461 -681 -710 -1269 -1304 -409 -413 -475
-469 -600 -516 -124 -47 -311 -53 -551 -19 -173 24 -335 68 -387 105 -56 40
-95 174 -139 478 -32 225 32 422 213 654 44 57 357 393 677 726 145 152 350
368 455 481 105 112 304 322 441 465 138 144 349 367 470 496 120 128 355 376
521 549 403 422 414 434 414 477 0 48 -14 70 -54 83 -28 9 -40 8 -63 -4 -27
-14 -130 -116 -278 -276 -39 -41 -241 -255 -450 -475 -210 -220 -446 -470
-525 -555 -80 -85 -285 -301 -455 -480 -171 -179 -380 -399 -465 -490 -85 -91
-281 -298 -436 -460 -367 -385 -437 -467 -521 -616 -125 -220 -156 -405 -113
-664 12 -67 23 -140 27 -163 8 -65 39 -177 62 -228 51 -114 162 -189 341 -232
58 -14 121 -28 140 -31 19 -3 69 -11 110 -18 43 -7 162 -13 280 -13 165 0 217
3 268 17 94 27 199 78 282 140 139 103 1280 1264 2205 2243 94 99 273 288 400
420 285 298 346 364 465 500 52 59 118 133 145 164 89 100 200 242 237 306 89
153 112 226 106 344 -9 174 -98 289 -389 506 -38 28 -245 194 -288 230 -110
93 -248 135 -375 114z"/>
</g>
</svg>
